<svg width="36" height="36" viewBox="0 0 36 36" fill="none" xmlns="http://www.w3.org/2000/svg">
    <path fill-rule="evenodd" clip-rule="evenodd" d="M18 6.25C15.6516 6.25 13.75 8.15161 13.75 10.5C13.75 12.8484 15.6516 14.75 18 14.75C20.3484 14.75 22.25 12.8484 22.25 10.5C22.25 8.15161 20.3484 6.25 18 6.25ZM11.25 10.5C11.25 6.77089 14.2709 3.75 18 3.75C21.7291 3.75 24.75 6.77089 24.75 10.5C24.75 14.2291 21.7291 17.25 18 17.25C14.2709 17.25 11.25 14.2291 11.25 10.5ZM11.8456 23.3662C9.88245 24.1933 8.75 25.3813 8.75 27.0714C8.75 27.5523 8.78596 27.8635 8.83242 28.0604C8.85018 28.1357 8.86731 28.185 8.87985 28.2153C8.94111 28.2291 9.0793 28.25 9.35294 28.25H26.6471C26.9207 28.25 27.0589 28.2291 27.1202 28.2153C27.1327 28.185 27.1498 28.1357 27.1676 28.0604C27.214 27.8635 27.25 27.5523 27.25 27.0714C27.25 25.3813 26.1175 24.1933 24.1544 23.3662C22.1989 22.5424 19.7549 22.25 18 22.25C16.2451 22.25 13.8011 22.5424 11.8456 23.3662ZM27.1002 28.2558C27.1002 28.2558 27.1005 28.2554 27.1011 28.2545L27.1002 28.2558ZM27.1598 28.2042C27.161 28.2036 27.1616 28.2034 27.1617 28.2034L27.1598 28.2042ZM8.83835 28.2034C8.83837 28.2034 8.83901 28.2036 8.84017 28.2042L8.83835 28.2034ZM8.89893 28.2546C8.89951 28.2554 8.89978 28.2558 8.89978 28.2558L8.89893 28.2546ZM10.875 21.0623C13.243 20.0647 16.049 19.75 18 19.75C19.951 19.75 22.757 20.0647 25.125 21.0623C27.4854 22.0567 29.75 23.9044 29.75 27.0714C29.75 28.159 29.6142 29.2019 28.9639 29.921C28.2603 30.6991 27.2809 30.75 26.6471 30.75H9.35294C8.71912 30.75 7.73973 30.6991 7.03609 29.921C6.38584 29.2019 6.25 28.159 6.25 27.0714C6.25 23.9044 8.51461 22.0567 10.875 21.0623Z" fill="#2688EB"/>
</svg>
