<svg width="48" height="40" viewBox="0 0 48 40" fill="none" xmlns="http://www.w3.org/2000/svg">
    <path fill-rule="evenodd" clip-rule="evenodd" d="M21.1206 4.64704C22.6936 3.01576 25.3064 3.01576 26.8794 4.64704L36.4202 14.5413C36.7029 14.8344 37.0927 15.0001 37.5 15.0001H45L45 15.1001V28.9001C45 30.605 44.9988 31.7934 44.9232 32.7187C44.8491 33.6265 44.7108 34.148 44.5095 34.543C44.0781 35.3897 43.3897 36.0782 42.543 36.5096C42.1479 36.7109 41.6264 36.8491 40.7186 36.9233C39.7934 36.9989 38.6049 37.0001 36.9 37.0001H31V29.0001C31 25.1341 27.866 22.0001 24 22.0001C20.134 22.0001 17 25.1341 17 29.0001V37.0001H11.1C9.39509 37.0001 8.20662 36.9989 7.28136 36.9233C6.37361 36.8491 5.85208 36.7109 5.45704 36.5096C4.61031 36.0782 3.9219 35.3897 3.49047 34.543C3.28919 34.148 3.15093 33.6265 3.07676 32.7187C3.00117 31.7934 3 30.605 3 28.9001V15.1001L3 15.0001H10.5C10.9073 15.0001 11.2971 14.8344 11.5798 14.5413L21.1206 4.64704ZM20 37.0001H28V29.0001C28 26.7909 26.2091 25.0001 24 25.0001C21.7909 25.0001 20 26.7909 20 29.0001V37.0001ZM17 40.0001H11.1H11.0358C9.41009 40.0001 8.09888 40.0001 7.03707 39.9133C5.94379 39.824 4.98351 39.6353 4.09507 39.1826C2.68386 38.4636 1.5365 37.3162 0.817452 35.905C0.364771 35.0166 0.176052 34.0563 0.0867279 32.963C-2.58982e-05 31.9012 -1.41684e-05 30.59 3.75181e-07 28.9643V28.9643V28.9001V15.1001V15.0359V15.0358C-1.41684e-05 13.4102 -2.58982e-05 12.0989 0.0867279 11.0371C0.176052 9.94385 0.364771 8.98357 0.817452 8.09513C1.5365 6.68392 2.68386 5.53656 4.09507 4.81751C4.98351 4.36483 5.94379 4.17611 7.03707 4.08679C8.09888 4.00003 9.41011 4.00005 11.0358 4.00006L11.1 4.00006H17.5769L18.9611 2.56463C21.7139 -0.290101 26.2861 -0.290098 29.0389 2.56464L30.4231 4.00006H36.9L36.9642 4.00006C38.5899 4.00005 39.9011 4.00003 40.9629 4.08679C42.0562 4.17611 43.0165 4.36483 43.9049 4.81751C45.3161 5.53656 46.4635 6.68392 47.1825 8.09513C47.6352 8.98357 47.8239 9.94385 47.9133 11.0371C48 12.0989 48 13.4102 48 15.0358V15.1001V28.9001V28.9643C48 30.59 48 31.9012 47.9133 32.963C47.8239 34.0563 47.6352 35.0166 47.1825 35.905C46.4635 37.3162 45.3161 38.4636 43.9049 39.1826C43.0165 39.6353 42.0562 39.824 40.9629 39.9133C39.9011 40.0001 38.5899 40.0001 36.9642 40.0001H36.9H31H28H20H17ZM44.9232 11.2814C44.9415 11.5045 44.9554 11.7429 44.966 12.0001H38.1374L33.3159 7.00006H36.9C38.6049 7.00006 39.7934 7.00123 40.7186 7.07682C41.6264 7.15099 42.1479 7.28925 42.543 7.49053C43.3897 7.92196 44.0781 8.61037 44.5095 9.4571C44.7108 9.85214 44.8491 10.3737 44.9232 11.2814ZM11.1 7.00006H14.6841L9.86265 12.0001H3.03404C3.04464 11.7429 3.05854 11.5045 3.07676 11.2814C3.15093 10.3737 3.28919 9.85214 3.49047 9.4571C3.9219 8.61037 4.61031 7.92196 5.45704 7.49053C5.85208 7.28925 6.37361 7.15099 7.28136 7.07682C8.20662 7.00123 9.39509 7.00006 11.1 7.00006ZM24 10.0001C22.3431 10.0001 21 11.3432 21 13.0001C21 14.6569 22.3431 16.0001 24 16.0001C25.6569 16.0001 27 14.6569 27 13.0001C27 11.3432 25.6569 10.0001 24 10.0001Z" fill="#2688EB"/>
</svg>
