<svg width="48" height="48" viewBox="0 0 48 48" fill="none" xmlns="http://www.w3.org/2000/svg">
    <path fill-rule="evenodd" clip-rule="evenodd" d="M45 24C45 35.598 35.598 45 24 45C12.402 45 3 35.598 3 24C3 12.402 12.402 3 24 3C35.598 3 45 12.402 45 24ZM48 24C48 37.2548 37.2548 48 24 48C10.7452 48 0 37.2548 0 24C0 10.7452 10.7452 0 24 0C37.2548 0 48 10.7452 48 24ZM16.5607 14.4393C15.9749 13.8536 15.0251 13.8536 14.4393 14.4393C13.8536 15.0251 13.8536 15.9749 14.4393 16.5607L21.8787 24L14.4393 31.4393C13.8536 32.0251 13.8536 32.9749 14.4393 33.5607C15.0251 34.1464 15.9749 34.1464 16.5607 33.5607L24 26.1213L31.4393 33.5607C32.0251 34.1464 32.9749 34.1464 33.5607 33.5607C34.1464 32.9749 34.1464 32.0251 33.5607 31.4393L26.1213 24L33.5607 16.5607C34.1464 15.9749 34.1464 15.0251 33.5607 14.4393C32.9749 13.8536 32.0251 13.8536 31.4393 14.4393L24 21.8787L16.5607 14.4393Z" fill="#c93633"/>
</svg>
