<svg width="52" height="40" viewBox="0 0 52 40" fill="none" xmlns="http://www.w3.org/2000/svg">
    <path d="M23.0937 0.380859C22.5398 0.380859 22.0039 0.57783 21.5818 0.936571L1.24674 18.2214C0.264435 19.0564 0.144989 20.5296 0.979946 21.5119C1.06153 21.6078 1.15075 21.6971 1.24674 21.7787L21.5818 39.0635C22.5641 39.8984 24.0373 39.779 24.8723 38.7967L24.9858 38.6519C25.2724 38.2553 25.428 37.7772 25.428 37.2849L25.428 28.813L25.7549 28.8196C36.3384 29.0647 43.8392 31.4727 48.303 35.9522L48.5585 36.2144C49.3107 37.002 50.5768 37.031 51.3756 36.268C51.8845 35.7818 52.1005 35.064 51.9442 34.3777L51.8354 33.9103C48.4052 19.4942 39.6145 11.8466 25.7457 11.2404L25.428 11.228L25.428 2.71519C25.428 1.42597 24.3829 0.380859 23.0937 0.380859ZM3.786 20L22.428 4.15404L22.428 12.7013C22.428 13.5297 23.0996 14.2013 23.928 14.2013L24.3712 14.2037C36.5802 14.3379 44.3997 20.043 48.0724 31.5533L48.177 31.889L47.967 31.7334C42.5017 27.7517 34.4796 25.7988 23.928 25.7988L23.7835 25.8056C23.0229 25.8783 22.428 26.5191 22.428 27.2988L22.428 35.845L3.786 20Z" fill="#2688EB"/>
</svg>