<svg width="56" height="56" viewBox="0 0 56 56" fill="none" xmlns="http://www.w3.org/2000/svg">
    <path fill-rule="evenodd" clip-rule="evenodd" d="M18.8275 7.99982L18.9508 8H38.0492L38.1725 7.99982C38.6671 7.99874 39.1957 7.99758 39.6983 8.14928C40.1362 8.28144 40.5439 8.49816 40.8985 8.78717C41.3054 9.1189 41.6002 9.55767 41.876 9.9682L41.9448 10.0705L47.1956 17.8494L47.2354 17.9083C47.3989 18.1498 47.5739 18.4083 47.702 18.6987C47.814 18.9525 47.8955 19.2187 47.9446 19.4917C48.0009 19.804 48.0004 20.1162 48.0001 20.4078L48 20.4789V21.5C48 24.6988 45.1427 27 42 27C40.2708 27 38.628 26.3033 37.5 25.1437C36.372 26.3033 34.7292 27 33 27C31.2708 27 29.628 26.3033 28.5 25.1437C27.372 26.3033 25.7292 27 24 27C22.2708 27 20.628 26.3033 19.5 25.1437C18.372 26.3033 16.7292 27 15 27C11.8573 27 9 24.6988 9 21.5V20.4789L8.99994 20.4078C8.99955 20.1162 8.99914 19.804 9.05538 19.4917C9.10453 19.2187 9.18597 18.9525 9.29798 18.6987C9.42612 18.4083 9.60112 18.1498 9.76456 17.9083L9.80441 17.8494L15.0552 10.0705L15.124 9.9682C15.3998 9.55767 15.6946 9.1189 16.1015 8.78717C16.4561 8.49816 16.8638 8.28144 17.3017 8.14928C17.8043 7.99758 18.3329 7.99874 18.8275 7.99982ZM45 20.4789V21.5C45 22.7195 43.8278 24 42 24C40.1722 24 39 22.7195 39 21.5C39 20.6716 38.3284 20 37.5 20C36.6716 20 36 20.6716 36 21.5C36 22.7195 34.8278 24 33 24C31.1722 24 30 22.7195 30 21.5C30 20.6716 29.3284 20 28.5 20C27.6716 20 27 20.6716 27 21.5C27 22.7195 25.8278 24 24 24C22.1722 24 21 22.7195 21 21.5C21 20.6716 20.3284 20 19.5 20C18.6716 20 18 20.6716 18 21.5C18 22.7195 16.8278 24 15 24C13.1722 24 12 22.7195 12 21.5V20.4789C12 20.2871 12.0002 20.1809 12.003 20.1002C12.0052 20.0392 12.0081 20.0215 12.0081 20.0219L12.0079 20.0232C12.0149 19.9842 12.0266 19.9462 12.0426 19.9099C12.0401 19.9155 12.0445 19.9028 12.0816 19.8434C12.1244 19.775 12.1836 19.6868 12.291 19.5278L17.5417 11.7489C17.7248 11.4777 17.8286 11.3248 17.9131 11.2136C17.9653 11.1449 17.9905 11.1187 17.9975 11.1121C18.0479 11.0711 18.1058 11.0403 18.168 11.0215C18.1774 11.0194 18.2132 11.0131 18.2994 11.0083C18.4388 11.0005 18.6236 11 18.9508 11H38.0492C38.3764 11 38.5612 11.0005 38.7006 11.0083C38.7868 11.0131 38.8226 11.0194 38.832 11.0215C38.8942 11.0403 38.9521 11.0711 39.0025 11.1121C39.0095 11.1188 39.0347 11.1449 39.0869 11.2136C39.1714 11.3248 39.2752 11.4777 39.4583 11.7489L44.709 19.5278C44.8164 19.6868 44.8756 19.775 44.9184 19.8434C44.9555 19.9028 44.9599 19.9155 44.9574 19.9099C44.9734 19.9462 44.9851 19.9842 44.9921 20.0232C44.991 20.0172 44.9945 20.0302 44.997 20.1002C44.9998 20.1809 45 20.2871 45 20.4789ZM17.9996 11.1103L17.9975 11.1121C17.9989 11.1107 17.9996 11.1102 17.9996 11.1103ZM18.1653 11.0222C18.1652 11.0221 18.166 11.0219 18.1679 11.0215L18.1653 11.0222ZM38.8347 11.0222L38.8321 11.0215C38.834 11.0219 38.8348 11.0222 38.8347 11.0222ZM39.0004 11.1103C39.0004 11.1102 39.0011 11.1107 39.0025 11.1121L39.0004 11.1103ZM7.50009 45.5C7.50009 44.6716 8.17166 44 9.00009 44H13V31.5C13 30.6716 13.6716 30 14.5 30C15.3284 30 16 30.6716 16 31.5V44H25V36C25 32.6863 27.6863 30 31 30C34.3137 30 37 32.6863 37 36V44H40V31.5C40 30.6716 40.6716 30 41.5 30C42.3284 30 43 30.6716 43 31.5V44H47.0001C47.8285 44 48.5001 44.6716 48.5001 45.5C48.5001 46.3284 47.8285 47 47.0001 47H35.5034C35.5023 47 35.5011 47 35.5 47H26.5C26.4989 47 26.4977 47 26.4966 47H9.00009C8.17166 47 7.50009 46.3284 7.50009 45.5ZM34 44V36C34 34.3431 32.6569 33 31 33C29.3431 33 28 34.3431 28 36V44H34Z" fill="#2688EB"/>
</svg>
