<svg width="56" height="56" viewBox="0 0 56 56" fill="none" xmlns="http://www.w3.org/2000/svg">
    <path fill-rule="evenodd" clip-rule="evenodd" d="M37.0037 28.1522C37.0037 33.1121 32.9738 37.1329 28.0027 37.1329C23.0316 37.1329 19.0017 33.1121 19.0017 28.1522C19.0017 23.1923 23.0316 19.1715 28.0027 19.1715C32.9738 19.1715 37.0037 23.1923 37.0037 28.1522ZM28.0027 34.1393C31.3168 34.1393 34.0034 31.4588 34.0034 28.1522C34.0034 24.8456 31.3168 22.1651 28.0027 22.1651C24.6886 22.1651 22.002 24.8456 22.002 28.1522C22.002 31.4588 24.6886 34.1393 28.0027 34.1393Z" fill="#2688EB"/>
    <path fill-rule="evenodd" clip-rule="evenodd" d="M29.2645 4.0046C28.4667 4.00442 27.6667 4.02154 26.8691 4.00275C26.4592 3.9931 25.0204 3.95921 23.8112 4.92614C22.6247 5.87483 22.1828 7.3237 21.9165 8.38851C21.7572 9.0255 21.4488 9.84109 21.0319 10.6221C20.1908 10.9562 19.3799 11.3487 18.604 11.7946C17.7604 11.6259 16.9618 11.3596 16.3843 11.0909C15.3884 10.6275 13.9807 10.0575 12.4934 10.3827C10.9802 10.7136 10.102 11.8517 9.85199 12.1756C9.3911 12.7728 8.91359 13.3619 8.42505 13.9369C8.15927 14.2496 7.23051 15.3426 7.22135 16.8859C7.21234 18.402 8.05988 19.6566 8.72102 20.5346C9.12777 21.0749 9.58131 21.8557 9.92987 22.6966C9.67865 23.5281 9.48336 24.3835 9.34827 25.2581C8.67568 25.8474 7.94153 26.3379 7.35068 26.6393C6.37112 27.1389 5.05741 27.896 4.39981 29.2642C3.73113 30.6554 4.08645 32.044 4.18808 32.4412C4.37509 33.172 4.5458 33.9107 4.69817 34.6495C4.78086 35.0505 5.07067 36.4557 6.28356 37.4145C7.47663 38.3576 8.99141 38.4623 10.0905 38.4822C10.7404 38.494 11.5952 38.6088 12.4429 38.8353C12.9534 39.5767 13.5155 40.2796 14.124 40.9389C14.1525 41.8108 14.0722 42.6629 13.9381 43.2951C13.7104 44.3694 13.4726 45.864 14.122 47.2346C14.7836 48.6311 16.0896 49.2303 16.4626 49.4014C17.1485 49.716 17.8303 50.0483 18.5005 50.3949C18.8641 50.5829 20.1427 51.2441 21.655 50.9046C23.1397 50.5712 24.1736 49.4609 24.88 48.6206C25.3111 48.1077 25.9624 47.4968 26.6957 46.9714C27.5601 47.0306 28.4452 47.0306 29.3097 46.9714C30.0429 47.4968 30.6943 48.1077 31.1254 48.6206C31.8317 49.4609 32.8657 50.5712 34.3504 50.9046C35.8626 51.2441 37.1412 50.5829 37.5049 50.3949C38.1751 50.0483 38.8569 49.7161 39.5428 49.4014C39.9158 49.2303 41.2217 48.6311 41.8834 47.2346C42.5328 45.864 42.295 44.3694 42.0672 43.2951C41.9332 42.6629 41.8529 41.8108 41.8813 40.9389C42.4898 40.2796 43.052 39.5767 43.5625 38.8353C44.4102 38.6088 45.2649 38.494 45.9148 38.4822C47.014 38.4623 48.5287 38.3576 49.7218 37.4145C50.9347 36.4557 51.2245 35.0505 51.3072 34.6495C51.4596 33.9107 51.6303 33.172 51.8173 32.4412C51.9189 32.044 52.2742 30.6554 51.6056 29.2642C50.948 27.896 49.6343 27.1389 48.6547 26.6393C48.0638 26.3379 47.3297 25.8474 46.6571 25.2581C46.522 24.3835 46.3267 23.5281 46.0755 22.6966C46.4241 21.8557 46.8776 21.0749 47.2844 20.5346C47.9455 19.6566 48.793 18.402 48.784 16.8859C48.7749 15.3426 47.8461 14.2496 47.5803 13.9369C47.0918 13.3619 46.6142 12.7729 46.1534 12.1756C45.9034 11.8517 45.0252 10.7136 43.512 10.3827C42.0247 10.0575 40.6169 10.6275 39.621 11.0909C39.0436 11.3596 38.245 11.6259 37.4014 11.7946C36.6255 11.3487 35.8145 10.9562 34.9735 10.6221C34.5566 9.84109 34.2482 9.0255 34.0889 8.38851C33.8329 7.36524 33.4235 6.04105 32.4063 5.10794C31.2144 4.01449 29.8107 4.00739 29.3081 4.00485L29.2645 4.0046ZM38.1572 46.7436L36.2547 47.6711C35.3034 48.1348 34.8278 48.3667 33.4242 46.6969C32.6372 45.7607 31.4053 44.6713 30.0576 43.8908C28.7122 44.0646 27.2931 44.0646 25.9478 43.8908C24.6001 44.6713 23.3681 45.7607 22.5811 46.6969C21.1776 48.3667 20.7019 48.1348 19.7507 47.6711L17.8481 46.7436C16.8969 46.2799 16.4212 46.048 16.8735 43.9146C17.1227 42.7394 17.224 41.135 17.0242 39.6169C16.0049 38.6413 15.1155 37.5312 14.3845 36.3152C12.9453 35.7751 11.3511 35.511 10.1449 35.4891C7.96335 35.4497 7.84431 34.9343 7.60623 33.9036L7.13006 31.8421C6.89198 30.8114 6.77293 30.296 8.7164 29.3047C9.80137 28.7513 11.1335 27.8025 12.1953 26.6721C12.3248 25.2755 12.6354 23.9314 13.1033 22.6635C12.6463 21.1694 11.8583 19.7173 11.1199 18.7366C9.80786 16.9941 10.1409 16.583 10.8069 15.7609L12.1391 14.1167C12.8051 13.2946 13.1382 12.8836 15.1162 13.804C16.2003 14.3084 17.7314 14.7658 19.2486 14.9152C20.4191 14.1405 21.6984 13.5166 23.0586 13.0715C23.914 11.788 24.5338 10.2877 24.8275 9.11335C25.3567 6.99765 25.8859 6.99765 26.9443 6.99765L29.2425 6.99808C30.1817 7.00497 30.6798 7.1221 31.1778 9.11335C31.4716 10.2877 32.0914 11.788 32.9468 13.0715C34.307 13.5166 35.5863 14.1405 36.7568 14.9152C38.274 14.7658 39.8051 14.3084 40.8891 13.804C42.8672 12.8836 43.2002 13.2946 43.8663 14.1167L45.1984 15.7609C45.8645 16.583 46.1975 16.9941 44.8855 18.7366C44.1471 19.7173 43.3591 21.1694 42.9021 22.6635C43.37 23.9314 43.6806 25.2755 43.81 26.6721C44.8718 27.8025 46.204 28.7513 47.289 29.3047C49.2324 30.296 49.1134 30.8114 48.8753 31.8421L48.3991 33.9036C48.1611 34.9343 48.042 35.4497 45.8605 35.4891C44.6543 35.511 43.0601 35.7751 41.6208 36.3152C40.8899 37.5312 40.0005 38.6413 38.9811 39.6169C38.7814 41.135 38.8827 42.7394 39.1318 43.9146C39.5841 46.048 39.1085 46.2799 38.1572 46.7436Z" fill="#2688EB"/>
</svg>
