<svg width="600" height="1080" viewBox="0 0 600 1080" fill="none" xmlns="http://www.w3.org/2000/svg">
    <rect opacity="0.7" x="400" y="320" width="40" height="40" fill="#D9D9D9" fill-opacity="0.32"/>
    <rect opacity="0.7" x="480" y="40" width="40" height="40" fill="#D9D9D9" fill-opacity="0.03"/>
    <rect opacity="0.7" x="400" y="400" width="40" height="40" fill="#D9D9D9" fill-opacity="0.2"/>
    <rect opacity="0.7" x="480" y="120" width="40" height="40" fill="#D9D9D9" fill-opacity="0.41"/>
    <rect opacity="0.7" x="520" y="160" width="40" height="40" fill="#D9D9D9" fill-opacity="0.27"/>
    <rect opacity="0.7" x="560" y="200" width="40" height="40" fill="#D9D9D9" fill-opacity="0.07"/>
    <rect opacity="0.7" x="240" y="440" width="40" height="40" fill="#D9D9D9" fill-opacity="0.2"/>
    <rect opacity="0.7" x="320" y="160" width="40" height="40" fill="#D9D9D9" fill-opacity="0.41"/>
    <rect opacity="0.7" x="360" y="200" width="40" height="40" fill="#D9D9D9" fill-opacity="0.27"/>
    <rect opacity="0.7" x="400" y="240" width="40" height="40" fill="#D9D9D9" fill-opacity="0.07"/>
    <rect opacity="0.7" x="520" width="40" height="40" fill="#D9D9D9" fill-opacity="0.22"/>
    <rect opacity="0.7" x="560" y="40" width="40" height="40" fill="#D9D9D9" fill-opacity="0.12"/>
    <rect opacity="0.7" x="440" y="280" width="40" height="40" fill="#D9D9D9" fill-opacity="0.32"/>
    <rect opacity="0.7" x="480" y="320" width="40" height="40" fill="#D9D9D9" fill-opacity="0.03"/>
    <rect opacity="0.7" x="520" y="280" width="40" height="40" fill="#D9D9D9" fill-opacity="0.22"/>
    <rect opacity="0.7" x="560" y="320" width="40" height="40" fill="#D9D9D9" fill-opacity="0.12"/>
    <rect opacity="0.7" x="440" y="440" width="40" height="40" fill="#D9D9D9" fill-opacity="0.27"/>
    <rect opacity="0.7" x="480" y="480" width="40" height="40" fill="#D9D9D9" fill-opacity="0.07"/>
    <rect opacity="0.7" x="80" y="880" width="40" height="40" fill="#D9D9D9" fill-opacity="0.32"/>
    <rect opacity="0.7" x="160" y="600" width="40" height="40" fill="#D9D9D9" fill-opacity="0.03"/>
    <rect opacity="0.7" x="80" y="960" width="40" height="40" fill="#D9D9D9" fill-opacity="0.2"/>
    <rect opacity="0.7" x="160" y="680" width="40" height="40" fill="#D9D9D9" fill-opacity="0.41"/>
    <rect opacity="0.7" x="200" y="720" width="40" height="40" fill="#D9D9D9" fill-opacity="0.27"/>
    <rect opacity="0.7" y="720" width="40" height="40" fill="#D9D9D9" fill-opacity="0.41"/>
    <rect opacity="0.7" x="40" y="760" width="40" height="40" fill="#D9D9D9" fill-opacity="0.27"/>
    <rect opacity="0.7" x="80" y="800" width="40" height="40" fill="#D9D9D9" fill-opacity="0.07"/>
    <rect opacity="0.7" x="120" y="840" width="40" height="40" fill="#D9D9D9" fill-opacity="0.32"/>
    <rect opacity="0.7" x="160" y="880" width="40" height="40" fill="#D9D9D9" fill-opacity="0.03"/>
    <rect opacity="0.7" x="200" y="840" width="40" height="40" fill="#D9D9D9" fill-opacity="0.22"/>
    <rect opacity="0.7" x="120" y="1000" width="40" height="40" fill="#D9D9D9" fill-opacity="0.27"/>
    <rect opacity="0.7" x="160" y="1040" width="40" height="40" fill="#D9D9D9" fill-opacity="0.07"/>
    <rect opacity="0.7" x="400" y="600" width="40" height="40" fill="#D9D9D9" fill-opacity="0.03"/>
    <rect opacity="0.7" x="440" y="560" width="40" height="40" fill="#D9D9D9" fill-opacity="0.22"/>
    <rect opacity="0.7" x="400" y="760" width="40" height="40" fill="#D9D9D9" fill-opacity="0.32"/>
    <rect opacity="0.7" x="400" y="840" width="40" height="40" fill="#D9D9D9" fill-opacity="0.2"/>
    <rect opacity="0.7" x="240" y="880" width="40" height="40" fill="#D9D9D9" fill-opacity="0.2"/>
    <rect opacity="0.7" x="320" y="600" width="40" height="40" fill="#D9D9D9" fill-opacity="0.41"/>
    <rect opacity="0.7" x="360" y="640" width="40" height="40" fill="#D9D9D9" fill-opacity="0.27"/>
    <rect opacity="0.7" x="400" y="680" width="40" height="40" fill="#D9D9D9" fill-opacity="0.07"/>
    <rect opacity="0.7" x="440" y="720" width="40" height="40" fill="#D9D9D9" fill-opacity="0.32"/>
    <rect opacity="0.7" x="440" y="880" width="40" height="40" fill="#D9D9D9" fill-opacity="0.27"/>
    <rect opacity="0.7" x="400" y="1040" width="40" height="40" fill="#D9D9D9" fill-opacity="0.03"/>
    <rect opacity="0.7" x="440" y="1000" width="40" height="40" fill="#D9D9D9" fill-opacity="0.22"/>
    <rect opacity="0.7" x="480" y="600" width="40" height="40" fill="#D9D9D9" fill-opacity="0.12"/>
</svg>
