<svg width="56" height="56" viewBox="0 0 56 56" fill="none" xmlns="http://www.w3.org/2000/svg">
    <path d="M28 29C35.0746 29 41 31.8537 41 38C41 41.0645 39.1452 43 36.625 43H19.375C16.7593 43 15 41.5722 15 38.5C15 31.973 20.8482 29 28 29ZM13.557 29.001C14.3206 29.0291 14.9519 29.634 14.9974 30.4124C15.0458 31.2394 14.4146 31.9491 13.5876 31.9974C9.70493 32.2246 7 33.9845 7 37C7 37.75 7.33333 38 8 38H10.5L10.6445 38.0069C11.4051 38.0796 12 38.7203 12 39.5C12 40.3284 11.3284 41 10.5 41H8L7.80399 40.9962C5.72391 40.9155 4 39.5455 4 37C4 32.0077 8.14527 29.3107 13.4124 29.0026L13.557 29.001ZM42.443 29.001L42.5876 29.0026C47.8548 29.3107 52 32.0077 52 37C52 39.5455 50.2761 40.9155 48.1961 40.9962L48 41H45.5C44.6716 41 44 40.3284 44 39.5C44 38.7203 44.5949 38.0796 45.3556 38.0069L45.5 38H48C48.6667 38 49 37.75 49 37C49 33.9845 46.2951 32.2246 42.4124 31.9974C41.5854 31.9491 40.9542 31.2394 41.0026 30.4124C41.0481 29.634 41.6794 29.0291 42.443 29.001ZM28 32C22.2901 32 18 34.1809 18 38.5C18 39.6515 18.2454 39.9507 19.1106 39.9941L19.375 40H36.625C37.4591 40 38 39.4355 38 38C38 34.1078 33.6234 32 28 32ZM15.9997 12C16.2116 12 16.4225 12.0095 16.6321 12.0283C17.4572 12.1024 18.066 12.8313 17.9919 13.6564C17.9178 14.4815 17.1889 15.0903 16.3638 15.0163C16.2434 15.0054 16.122 15 15.9997 15C13.7905 15 11.9997 16.7909 11.9997 19C11.9997 21.2091 13.7905 23 15.9997 23C16.2399 23 16.4768 22.979 16.7088 22.9376C16.8329 22.9155 16.9555 22.8875 17.0764 22.8538L17.2349 22.816C17.9865 22.6784 18.7336 23.1326 18.9464 23.8827C19.1724 24.6797 18.7095 25.509 17.9125 25.735L17.5606 25.825L17.2358 25.8909C16.8301 25.9633 16.4168 26 15.9997 26C12.1337 26 8.99966 22.866 8.99966 19C8.99966 15.134 12.1337 12 15.9997 12ZM40.0037 12C43.8696 12 47.0037 15.134 47.0037 19C47.0037 22.866 43.8696 26 40.0037 26C39.5865 26 39.1733 25.9633 38.7676 25.8909L38.4427 25.825L38.0908 25.735C37.2938 25.509 36.8309 24.6797 37.0569 23.8827C37.2697 23.1326 38.0168 22.6784 38.7684 22.816L38.927 22.8538C39.0478 22.8875 39.1704 22.9155 39.2945 22.9376C39.5265 22.979 39.7634 23 40.0037 23C42.2128 23 44.0037 21.2091 44.0037 19C44.0037 16.7909 42.2128 15 40.0037 15C39.8814 15 39.7599 15.0054 39.6395 15.0163C38.8144 15.0903 38.0855 14.4815 38.0114 13.6564C37.9373 12.8313 38.5461 12.1024 39.3712 12.0283C39.5808 12.0095 39.7917 12 40.0037 12ZM28 10C32.4183 10 36 13.5817 36 18C36 22.4183 32.4183 26 28 26C23.5818 26 20 22.4183 20 18C20 13.5817 23.5818 10 28 10ZM28 13C25.2386 13 23 15.2386 23 18C23 20.7614 25.2386 23 28 23C30.7615 23 33 20.7614 33 18C33 15.2386 30.7615 13 28 13Z" fill="#0077FF"/>
</svg>
